<svg width="82" height="83" viewBox="0 0 82 83" fill="none" xmlns="http://www.w3.org/2000/svg">
<g clip-path="url(#clip0_179_108979)">
<g clip-path="url(#clip1_179_108979)">
<path d="M49.1985 15.0846L51.5866 32.9897C51.6635 33.5688 51.8942 34.1131 52.2531 34.5624C52.6121 35.0117 53.0853 35.3484 53.6204 35.5353L70.9909 39.9512C72.4144 40.452 71.7021 43.8978 70.3372 44.5972L54.5688 52.6367C54.0594 52.8968 53.628 53.2963 53.322 53.7913C53.016 54.2863 52.8472 54.8577 52.8343 55.4425L52.8839 71.9427C52.8165 74.2148 50.5672 75.871 49.5154 74.7481L37.3808 61.8238C36.9879 61.4062 36.4903 61.1094 35.9425 60.9661C35.3946 60.8228 34.8178 60.8384 34.2752 61.0113L17.5018 66.3858C16.0469 66.853 15.0705 64.173 15.8871 62.3827L23.7877 47.8403C24.0544 47.3219 24.1783 46.7388 24.1457 46.1552C24.1131 45.5717 23.9253 45.0102 23.603 44.5325L13.6099 29.7535C12.7466 28.4743 13.8117 25.1048 15.6031 25.2427L32.5553 30.0244C33.1127 30.1233 33.6871 30.0607 34.2151 29.8434C34.743 29.6261 35.2038 29.2627 35.5464 28.7934L46.151 14.2873C46.3548 14.0076 46.6338 13.7959 46.9527 13.679C47.2716 13.5621 47.616 13.5453 47.9423 13.6306C48.2686 13.716 48.5621 13.8997 48.7858 14.1585C49.0094 14.4174 49.153 14.7396 49.1985 15.0846Z" fill="#E67716"/>
<path d="M70.8212 42.6876L55.0528 50.7271C54.5451 50.9894 54.1152 51.3894 53.8095 51.884C53.5038 52.3785 53.3339 52.9486 53.3183 53.5329L52.9356 71.6284C52.9261 71.9745 52.8182 72.311 52.6252 72.5959C52.4322 72.8807 52.1628 73.1013 51.8506 73.23C51.5385 73.3587 51.1973 73.3898 50.8699 73.3195C50.5425 73.2492 50.2433 73.0806 50.0097 72.8347L38.7153 60.7918L37.8753 59.8976C37.4835 59.4801 36.9868 59.1835 36.4398 59.0404C35.8929 58.8973 35.317 58.9133 34.7754 59.0867L27.8707 61.2977L17.9904 64.4581C17.7683 64.533 17.5339 64.5587 17.3025 64.5336C17.0711 64.5085 16.8479 64.4331 16.6475 64.3123C16.486 64.2175 16.3409 64.096 16.2177 63.9526C15.9854 63.6884 15.839 63.3555 15.7986 62.9997C15.7582 62.644 15.826 62.2831 15.9925 61.9668L24.2709 45.9337C24.5383 45.4155 24.6626 44.8323 24.63 44.2485C24.5974 43.6648 24.4092 43.1033 24.0862 42.6259L21.2192 38.4011L14.0932 27.8469C13.8986 27.5622 13.7909 27.2233 13.7838 26.8733C13.7767 26.5234 13.8706 26.1782 14.0535 25.8817C14.2363 25.5853 14.5 25.3509 14.8108 25.2084C15.1216 25.0659 15.4655 25.0218 15.7988 25.0817L33.0438 28.1095C33.3783 28.1719 33.721 28.1758 34.0579 28.1211C34.2674 28.0903 34.4733 28.0365 34.6722 27.9607C35.2087 27.7437 35.6775 27.377 36.0259 26.9019L36.6333 26.0716L46.6343 12.3807C46.8381 12.101 47.1171 11.8893 47.436 11.7724C47.7548 11.6555 48.0992 11.6386 48.4255 11.724C48.7519 11.8094 49.0454 11.9931 49.269 12.2519C49.4927 12.5107 49.6363 12.833 49.6818 13.1779L49.9725 15.3703L52.0699 31.0831C52.147 31.6616 52.3774 32.2053 52.7358 32.6543C53.0941 33.1034 53.5665 33.4403 54.1007 33.6279L54.6955 33.8381L59.8743 35.6586L66.9682 38.1567L70.6373 39.4377C70.9576 39.5489 71.2378 39.7562 71.4422 40.0335C71.6466 40.3107 71.766 40.6453 71.7851 40.9947C71.8043 41.344 71.7224 41.6923 71.5498 41.9953C71.3772 42.2982 71.1218 42.5421 70.816 42.6959L70.8212 42.6876Z" fill="#FFC233"/>
<path d="M71.7811 41.1149L40.768 42.0159L48.4455 11.7308C48.7689 11.8159 49.0594 11.9992 49.2796 12.2571C49.4999 12.515 49.6399 12.8357 49.6817 13.1782L49.9724 15.3705L52.0698 31.0833C52.1469 31.6618 52.3773 32.2055 52.7357 32.6546C53.094 33.1036 53.5664 33.4405 54.1006 33.6282L54.6954 33.8384L59.8742 35.6588L66.9681 38.157L70.6372 39.438C70.9768 39.5539 71.2708 39.7789 71.4765 40.0805C71.6822 40.382 71.7889 40.7444 71.7811 41.1149Z" fill="#FFE666"/>
<path d="M40.7681 42.0159L14.2073 25.6965C14.3978 25.4596 14.6454 25.2787 14.9246 25.1724C15.2038 25.066 15.5047 25.0379 15.7965 25.091L33.0414 28.1188C33.3771 28.1784 33.7207 28.1793 34.0578 28.1214C34.2673 28.0905 34.4732 28.0367 34.6721 27.9609L40.7681 42.0159Z" fill="#FFE666"/>
<path d="M51.7955 73.2636L40.7681 42.0159L53.8548 51.8077C53.515 52.3167 53.3273 52.9167 53.3153 53.5323L52.9327 71.6279C52.929 71.987 52.8177 72.3371 52.614 72.6301C52.4104 72.923 52.1244 73.1444 51.7955 73.2636Z" fill="#FFE666"/>
<path d="M40.768 42.0159L36.4498 59.0497C35.8971 58.8999 35.3133 58.9141 34.765 59.0906L27.8706 61.298L17.9903 64.4583C17.7682 64.5332 17.5338 64.5589 17.3024 64.5338C17.071 64.5087 16.8478 64.4333 16.6474 64.3125C16.4859 64.2178 16.3408 64.0963 16.2176 63.9528L40.768 42.0159Z" fill="#FFE666"/>
<path d="M55.624 41.3551L53.1449 41.3488L50.6606 41.3636C49.8351 41.366 49.0088 41.3843 48.1724 41.3935C47.3359 41.4026 46.5227 41.4179 45.6811 41.4354C44.2136 41.4754 42.7462 41.5025 41.2793 41.5523C41.5847 40.3477 41.884 39.1671 42.1544 37.9661L42.6498 35.8895L43.1553 33.822C43.3144 33.1293 43.4708 32.4348 43.6246 31.7385C43.7761 31.0428 43.9364 30.3493 44.0814 29.655C44.3788 28.262 44.6732 26.8682 44.9385 25.4668C44.5103 26.8256 44.1054 28.1905 43.7063 29.5569C43.5053 30.2397 43.3167 30.9226 43.1215 31.6069C42.9263 32.2913 42.734 32.9764 42.5476 33.663L41.983 35.7311L41.433 37.7903C41.1102 38.9903 40.8103 40.1611 40.5058 41.35C39.793 40.9001 39.0701 40.4573 38.3372 40.0215C37.4483 39.4914 36.556 38.9668 35.6602 38.4477C33.8831 37.3762 32.0537 36.3992 30.1789 35.5204C31.8178 36.8049 33.5205 38.0006 35.2801 39.1029C36.1496 39.6687 37.0219 40.2276 37.8969 40.7798C38.6097 41.2296 39.3246 41.6714 40.0415 42.1052C39.5368 42.5672 39.032 43.0293 38.5316 43.4989C37.8831 44.1 37.2439 44.7131 36.6019 45.3255C36.2805 45.6268 35.9685 45.9402 35.6478 46.2513C35.3271 46.5624 35.0137 46.869 34.7038 47.1861C34.0769 47.8121 33.4543 48.4457 32.8461 49.0958C33.5564 48.5687 34.2532 48.022 34.9419 47.47C35.2899 47.1982 35.6307 46.918 35.9744 46.6386C36.3181 46.3592 36.661 46.0828 36.9968 45.7982C37.6741 45.2303 38.3564 44.667 39.0259 44.081C39.5443 43.6386 40.0539 43.1939 40.5643 42.7461C41.2831 44.8032 42.0276 46.8488 42.7978 48.8829C43.227 49.9907 43.6555 51.1016 44.1081 52.2027C44.5608 53.3038 45.0171 54.4026 45.5115 55.4857C45.2163 54.3263 44.8801 53.1818 44.5264 52.0327C44.1727 50.8836 43.8232 49.7549 43.4599 48.6194C42.7845 46.5458 42.0784 44.4835 41.3415 42.4324C42.7988 42.3962 44.2511 42.3426 45.718 42.2928C46.5422 42.2708 47.3681 42.23 48.1924 42.1951C49.0167 42.1603 49.8432 42.1292 50.6698 42.0854L53.1453 41.959L55.6203 41.8101C57.2701 41.699 58.9193 41.5909 60.5703 41.4384C58.9289 41.3815 57.2761 41.3698 55.624 41.3551Z" fill="white"/>
</g>
</g>
<defs>
<clipPath id="clip0_179_108979">
<rect width="66.7955" height="67.6339" fill="white" transform="matrix(0.967442 0.253094 -0.245733 0.969338 16.9661 0)"/>
</clipPath>
<clipPath id="clip1_179_108979">
<rect width="60.116" height="60.8705" fill="white" transform="matrix(0.967442 0.253094 -0.245733 0.969338 19.3661 4.12328)"/>
</clipPath>
</defs>
</svg>
