<svg width="123" height="123" viewBox="0 0 123 123" fill="none" xmlns="http://www.w3.org/2000/svg">
<g clip-path="url(#clip0_179_108978)">
<g clip-path="url(#clip1_179_108978)">
<path d="M85.6152 92.7844C102.745 79.7012 106.285 55.7581 93.5203 39.3061C80.7558 22.854 56.5214 20.123 39.3912 33.2062C22.2609 46.2894 18.7217 70.2325 31.4861 86.6846C44.2506 103.137 68.485 105.868 85.6152 92.7844Z" fill="#3E8899"/>
<path d="M92.221 37.6881C97.8525 45.6219 100.077 55.4887 98.4302 65.2241C96.7831 74.9594 91.3915 83.8089 83.3836 89.9209C82.9783 90.2305 82.573 90.54 82.173 90.8455C82.0557 90.9351 81.9437 91.0207 81.8264 91.1103C81.4904 91.3669 81.1359 91.5887 80.7814 91.8105C79.9644 92.3447 79.1196 92.8431 78.2748 93.3088C78.1255 93.4229 77.9458 93.4868 77.7726 93.5701C77.4621 93.7501 77.1358 93.9096 76.824 94.0661C76.6242 94.1698 76.4218 94.2592 76.2033 94.3608C75.8463 94.5356 75.4907 94.7011 75.1364 94.8575C74.6915 95.0505 74.252 95.2393 73.8006 95.4128C73.6687 95.4727 73.5435 95.5194 73.4037 95.5691C73.0561 95.7122 72.7113 95.8369 72.3571 95.9606L70.8899 96.4449C70.486 96.5739 70.0853 96.6924 69.6877 96.8002C69.5 96.8539 69.2937 96.9054 69.098 96.9488C68.6773 97.0743 68.2607 97.1723 67.8362 97.26C67.4116 97.3477 66.9018 97.4679 66.444 97.5565C65.3891 97.7586 64.3321 97.9106 63.2731 98.0125C62.826 98.0602 62.379 98.108 61.9254 98.1364C61.4717 98.1647 60.9223 98.2009 60.4195 98.2097C59.9167 98.2185 59.2517 98.237 58.6651 98.2364C58.0786 98.2357 57.5333 98.2116 56.9735 98.1906L56.8471 98.1811C56.2846 98.1457 55.7328 98.1022 55.1877 98.0455C54.6425 97.9887 54.1679 97.9352 53.6481 97.8673L53.2971 97.8091C52.9674 97.7672 52.6444 97.7121 52.3227 97.6478C52.0011 97.5835 51.585 97.518 51.2181 97.4392C50.4884 97.2869 49.7654 97.1213 49.0558 96.9291C48.6637 96.8288 48.2744 96.7102 47.889 96.5966C47.5037 96.4831 47.2233 96.3954 46.9031 96.2892C46.2362 96.0645 45.5745 95.8357 44.9276 95.5712C44.6673 95.4764 44.4136 95.3683 44.1545 95.2644C43.2686 94.8887 42.3921 94.4815 41.4984 94.0302C41.2872 93.9223 41.0775 93.8052 40.8663 93.6972C40.6552 93.5893 40.3405 93.4136 40.075 93.2575C39.9091 93.164 39.7445 93.0613 39.5785 92.9678C39.4126 92.8744 39.2559 92.7819 39.1046 92.6854C38.9533 92.5889 38.7143 92.4451 38.5259 92.3117C38.0108 91.9872 37.5065 91.6546 37.0142 91.3047C36.7965 91.1446 36.5736 90.9886 36.3613 90.8245C35.8253 90.4182 35.337 90.0406 34.8395 89.6293C34.6445 89.4765 34.4508 89.3144 34.2718 89.1494C34.2201 89.0828 34.1405 89.0458 34.0821 88.9924C33.8725 88.8099 33.6669 88.6325 33.468 88.4418C32.5953 87.647 31.7656 86.8078 30.9822 85.9275C30.7345 85.6191 30.4854 85.3199 30.2349 85.0299C24.5824 77.0974 22.3406 67.2223 23.9793 57.4744C25.6179 47.7266 31.0099 38.863 39.0249 32.7415C47.04 26.62 57.0557 23.716 66.9728 24.6382C76.8898 25.5604 85.9381 30.2371 92.221 37.6881Z" fill="#FFEFD9"/>
<path d="M91.29 36.4334C91.6079 36.8432 91.9258 37.253 92.2437 37.6627C92.3073 37.7447 92.3749 37.8317 92.4385 37.9137C92.7047 38.2568 92.9336 38.6285 93.1639 38.991C93.3942 39.3535 93.6245 39.716 93.852 40.0969C94.5455 41.2365 95.1753 42.4137 95.7388 43.6234C95.9145 44.0031 96.0755 44.3859 96.2366 44.7686C96.3976 45.1513 96.552 45.5473 96.697 45.9423C99.1005 52.3559 99.66 59.3482 98.3154 66.1672C98.2519 66.5013 98.1803 66.8251 98.1048 67.1437C98.0294 67.4624 97.97 67.7362 97.8986 68.0273C97.5132 69.5778 97.0313 71.1064 96.4556 72.6042L96.1016 73.4945L95.7546 74.306C93.0613 80.4155 88.8201 85.7799 83.4476 89.8721C83.0423 90.1817 82.637 90.4912 82.237 90.7967L81.8904 91.0615C81.5544 91.3181 81.1959 91.5348 80.8454 91.7617C80.0244 92.2908 79.1796 92.7892 78.3349 93.2549L77.8366 93.5213C77.5222 93.6962 77.1998 93.8608 76.888 94.0174L76.2673 94.312C75.9103 94.4868 75.5547 94.6524 75.2004 94.8087C74.7555 95.0017 74.316 95.1905 73.8646 95.364C73.7327 95.4239 73.6036 95.4655 73.4677 95.5203C73.1162 95.6583 72.7753 95.7881 72.4171 95.9067C71.9378 96.077 71.4505 96.2371 70.9539 96.3961C70.4572 96.5552 70.1511 96.6422 69.7477 96.7463C69.564 96.8051 69.3577 96.8566 69.162 96.9C68.7374 97.0204 68.3208 97.1184 67.9002 97.2112C67.4796 97.304 66.9658 97.4191 66.4842 97.477C65.4356 97.6844 64.3786 97.8383 63.3172 97.9381C62.8702 97.9858 62.4231 98.0336 61.9695 98.062C61.5159 98.0903 60.9625 98.1214 60.4637 98.1353C59.9649 98.1492 59.2958 98.1626 58.7053 98.1568C58.1148 98.1511 57.5775 98.1373 57.0136 98.1111L56.8873 98.1015C56.3288 98.0713 55.777 98.0278 55.2278 97.966C54.6787 97.9041 54.212 97.8608 53.6922 97.7929L53.3413 97.7347C53.0115 97.6928 52.6845 97.6326 52.3668 97.5734C52.0492 97.5143 51.6291 97.4435 51.2623 97.3648C50.5325 97.2125 49.8095 97.0469 49.0999 96.8547C48.7039 96.7493 48.3185 96.6358 47.9332 96.5223C47.5478 96.4087 47.2675 96.321 46.9433 96.2097C46.2803 95.9901 45.6147 95.7562 44.9678 95.4916C44.7074 95.3969 44.4577 95.2939 44.1987 95.19C43.3088 94.8092 42.4322 94.402 41.5425 93.9558L40.9105 93.6228C40.6476 93.481 40.3847 93.3392 40.1192 93.1831C39.9532 93.0896 39.7872 92.9961 39.6266 92.8986C39.466 92.801 39.304 92.7126 39.1527 92.6161C39.0014 92.5196 38.7624 92.3758 38.574 92.2424C38.0669 91.9282 37.5586 91.5905 37.0623 91.2354C36.8446 91.0753 36.6217 90.9193 36.4094 90.7552C35.8734 90.3489 35.3891 89.9765 34.8916 89.5652C34.6966 89.4123 34.5029 89.2503 34.3239 89.0852C34.2722 89.0186 34.1925 88.9816 34.1302 88.9232C33.9246 88.7457 33.7151 88.5632 33.5201 88.3776C32.6274 87.632 31.7882 86.7802 30.9876 85.8908C30.7572 85.5937 30.4854 85.32 30.2309 85.0249C30.0839 84.8354 29.9329 84.6408 29.7859 84.4512C29.6388 84.2617 29.4481 84.0159 29.2772 83.7956C29.1779 83.6676 29.0745 83.5344 28.9752 83.4064C28.705 83.0581 28.4347 82.7098 28.2124 82.3576C27.4618 81.2917 26.7726 80.1842 26.1481 79.04C25.9365 78.6578 25.7302 78.2716 25.5293 77.8812C25.335 77.4994 25.146 77.1135 24.9717 76.7246C22.1164 70.5587 21.04 63.693 21.8572 56.8593C21.8942 56.5129 21.9405 56.1675 21.9908 55.8273L22.1534 54.8875C22.4205 53.3591 22.7802 51.845 23.2305 50.3534C23.3259 50.0276 23.4254 49.707 23.5341 49.3874C23.6429 49.0678 23.7355 48.7931 23.8455 48.497C25.6899 43.3556 28.613 38.6249 32.4206 34.6189C36.2282 30.6128 40.8332 27.4232 45.93 25.2616C51.0268 23.1001 56.4988 22.0162 61.9826 22.0817C67.4663 22.1473 72.8365 23.3609 77.7366 25.642C81.3617 27.3194 84.6713 29.5672 87.5391 32.2995C88.8942 33.5814 90.1479 34.9631 91.29 36.4334Z" fill="#81EAFF"/>
<path d="M65.9922 22.3273L46.692 96.1813C40.2459 94.009 34.5633 90.1585 30.2349 85.0299C29.917 84.6202 29.5991 84.2104 29.2772 83.7956C24.6963 77.8956 22.0434 70.7341 21.655 63.2194C21.2666 55.7047 23.1601 48.1756 27.0955 41.5871C31.0308 34.9987 36.8305 29.6478 43.7589 26.2134C50.6873 22.779 58.4322 21.4158 66.0109 22.2967L65.9922 22.3273Z" fill="#B3F2FF"/>
<path d="M87.5312 32.2891L72.3413 95.9073C68.4892 97.2738 64.4593 98.0331 60.4038 98.1565L77.7247 25.6265C81.3516 27.3051 84.6625 29.5546 87.5312 32.2891Z" fill="#B3F2FF"/>
<path d="M91.29 36.4333C91.6119 36.8482 91.9298 37.2579 92.2477 37.6677C85.9648 30.2167 76.9164 25.5399 66.9994 24.6178C57.0824 23.6956 47.0666 26.5996 39.0516 32.7211C31.0365 38.8426 25.6446 47.7062 24.0059 57.454C22.3672 67.2018 24.6091 77.077 30.2615 85.0095C29.9436 84.5998 29.6257 84.19 29.3038 83.7751C24.1396 77.0593 21.4796 68.7563 21.7524 60.2041C22.0253 51.6518 25.2151 43.3486 30.8078 36.6322C36.4006 29.9159 44.0705 25.1776 52.5817 23.1811C61.0929 21.1845 69.9496 22.0459 77.7246 25.6265C81.3515 27.3051 84.6625 29.5546 87.5311 32.2891C88.8899 33.5735 90.1463 34.9588 91.29 36.4333Z" fill="#E6FAFF"/>
<path d="M48.5863 70.994C49.7012 70.8532 50.1205 69.615 50.7446 68.7509C50.9837 68.4108 51.3414 68.1741 51.7421 68.0908C52.1428 68.0075 52.5551 68.0842 52.8919 68.3047C53.9375 69.0333 55.2257 69.3334 56.5054 69.1465L64.3597 67.9998C65.6392 67.822 66.8219 67.1706 67.6776 66.1725C67.9552 65.863 68.3381 65.6719 68.7446 65.6399C69.1511 65.6078 69.5491 65.7373 69.8538 66.0009C70.2577 66.337 70.7294 66.5815 71.2385 66.7186C71.7475 66.8557 72.2826 66.8824 72.8091 66.7969C73.2835 66.7133 73.7124 66.4462 74.0042 66.0527C74.296 65.6592 74.4275 65.1706 74.3708 64.691L74.1228 62.4164C73.9095 60.51 73.3212 58.6772 72.3924 57.0252C71.4636 55.3733 70.213 53.9352 68.7135 52.7952C68.2118 52.4025 67.8821 51.827 67.7913 51.1853C67.1888 47.1017 66.0047 43.1451 64.2754 39.4378C62.5319 35.7478 61.0129 32.7985 58.2682 29.7641C57.6685 29.2151 56.9115 28.8702 56.0989 28.7759C55.8343 28.8146 55.5808 28.9162 55.3591 29.0723C55.1375 29.2283 54.9542 29.4344 54.8243 29.6734C50.8135 37.0756 48.986 45.4347 49.565 53.7295C49.6273 54.3884 49.4299 55.0536 49.0155 55.5812C47.8013 57.1117 46.895 58.8635 46.3503 60.7333C45.8056 62.6032 45.6333 64.5532 45.8438 66.4683L46.0918 68.7429C46.1914 69.74 47.5906 71.1121 48.5863 70.994Z" fill="#397C8C"/>
<path d="M49.8912 71.6431C50.421 71.5816 50.9355 71.4085 51.4014 71.1351C51.8673 70.8616 52.2741 70.494 52.5956 70.0559C52.8341 69.7166 53.1905 69.4802 53.59 69.3963C53.9894 69.3124 54.4008 69.3875 54.7377 69.6059C55.7844 70.3366 57.0746 70.638 58.3565 70.4514L66.2373 69.3234C67.5158 69.1446 68.6969 68.4917 69.5499 67.4924C69.8298 67.1823 70.2152 66.9916 70.6237 66.961C71.0323 66.9303 71.4317 67.0621 71.7367 67.3282C72.1401 67.6633 72.6111 67.907 73.1192 68.0434C73.6273 68.1799 74.1613 68.2062 74.6867 68.1205C75.1609 68.0357 75.5891 67.7675 75.8799 67.3734C76.1707 66.9792 76.301 66.4902 76.2431 66.0109L76.0004 63.74C75.7871 61.8233 75.1951 59.9808 74.2595 58.3212C73.3282 56.6542 72.066 55.2062 70.5496 54.065C70.0469 53.6732 69.717 53.0973 69.6274 52.4551C69.0212 48.3762 67.8331 44.4251 66.1 40.724C64.3612 37.013 62.0884 33.5951 59.3536 30.5784C58.9708 30.1526 57.9351 29.324 57.4269 29.3921C56.9186 29.4602 56.9354 30.4399 56.6542 30.9634C52.646 38.3729 50.8275 46.7397 51.4214 55.0382C51.4801 55.6969 51.2831 56.3607 50.8719 56.8899C49.6585 58.4202 48.7524 60.1713 48.2068 62.0403C47.6612 63.9092 47.4872 65.8584 47.6949 67.7733L47.2374 69.9114C47.3371 70.9085 48.9166 71.7762 49.8912 71.6431Z" fill="#E6FAFF"/>
<path d="M48.9683 70.9926C49.4982 70.9314 50.0129 70.7585 50.4788 70.4851C50.9447 70.2116 51.3515 69.8437 51.6728 69.4054C51.9119 69.0652 52.2696 68.8285 52.6703 68.7453C53.071 68.662 53.4833 68.7387 53.8201 68.9591C54.8662 69.6865 56.154 69.9866 57.4336 69.8009L65.2879 68.6542C66.5667 68.4739 67.7485 67.823 68.6058 66.8269C68.8825 66.516 69.2656 66.3238 69.6726 66.2917C70.0797 66.2596 70.478 66.3901 70.782 66.6553C71.1861 66.991 71.6579 67.2353 72.1669 67.3724C72.6758 67.5095 73.2108 67.5364 73.7373 67.4513C74.2102 67.3646 74.6371 67.0968 74.9283 66.7041C75.2195 66.3114 75.3524 65.8245 75.299 65.3454L75.051 63.0708C74.8381 61.152 74.2461 59.3073 73.3099 57.6456C72.3738 55.984 71.1124 54.5389 69.6002 53.3958C69.1003 53.004 68.7725 52.4296 68.6833 51.7896C68.081 47.7041 66.895 43.746 65.1622 40.0384C63.4166 36.3311 61.1383 32.9175 58.3989 29.9054C58.2224 29.71 58.0008 29.5618 57.7527 29.4732C57.5046 29.3847 57.2374 29.3583 56.9734 29.3964C56.7093 29.4345 56.4563 29.5359 56.2356 29.6922C56.0148 29.8484 55.8328 30.0549 55.7047 30.2942C51.6937 37.7027 49.875 46.0704 50.472 54.3689C50.5405 55.03 50.3532 55.7001 49.949 56.2394C48.7327 57.768 47.8248 59.519 47.2791 61.3884C46.7334 63.2579 46.5609 65.2078 46.772 67.1228L47.02 69.3974C47.0737 69.8713 47.3056 70.3008 47.668 70.5976C48.0305 70.8943 48.4958 71.0357 48.9683 70.9926Z" fill="#489FB3"/>
<path d="M65.68 49.916C67.3176 48.6653 67.6559 46.3764 66.4357 44.8036C65.2154 43.2308 62.8986 42.9697 61.261 44.2204C59.6234 45.4712 59.2851 47.7601 60.5053 49.3329C61.7256 50.9057 64.0423 51.1667 65.68 49.916Z" fill="#397C8C"/>
<path d="M63.6738 60.1272C65.3115 58.8765 65.6498 56.5876 64.4295 55.0148C63.2093 53.442 60.8925 53.1809 59.2549 54.4317C57.6173 55.6824 57.2789 57.9713 58.4992 59.5441C59.7194 61.1169 62.0362 61.378 63.6738 60.1272Z" fill="#397C8C"/>
<path d="M55.7312 49.3665C55.8419 49.457 55.9588 49.5394 56.0812 49.6133C55.4447 49.0169 55.0506 48.2005 54.972 47.3156C54.8935 46.4307 55.1358 45.5372 55.6541 44.8009C56.1724 44.0646 56.9314 43.5355 57.7904 43.3116C58.6495 43.0878 59.5502 43.1844 60.3256 43.5836C60.2149 43.493 60.0979 43.4106 59.9755 43.3367C59.5904 43.0391 59.1473 42.8252 58.673 42.708C58.1986 42.5908 57.7028 42.5726 57.2154 42.6546C56.728 42.7366 56.2591 42.917 55.8368 43.1851C55.4145 43.4531 55.0476 43.8033 54.7583 44.2144C54.4689 44.6255 54.263 45.0891 54.1529 45.5773C54.0428 46.0655 54.0309 46.5682 54.1178 47.0552C54.2048 47.5421 54.3888 48.0033 54.6587 48.4108C54.9287 48.8184 55.2791 49.164 55.6887 49.4268L55.7312 49.3665Z" fill="#E6FAFF"/>
<path d="M56.0966 49.5914C56.872 49.9906 57.7728 50.0872 58.6318 49.8633C59.4908 49.6395 60.2499 49.1103 60.7681 48.374C61.2864 47.6378 61.5287 46.7443 61.4502 45.8594C61.3716 44.9744 60.9775 44.1581 60.341 43.5617C59.5656 43.1625 58.6649 43.0659 57.8058 43.2897C56.9468 43.5136 56.1878 44.0427 55.6695 44.779C55.1512 45.5153 54.9089 46.4088 54.9874 47.2937C55.066 48.1786 55.4601 48.995 56.0966 49.5914Z" fill="#B3F2FF"/>
<path d="M56.873 59.7515C56.9819 59.8408 57.0971 59.922 57.2177 59.9946C56.5811 59.3982 56.187 58.5818 56.1085 57.6969C56.03 56.8119 56.2723 55.9185 56.7906 55.1822C57.3088 54.4459 58.0679 53.9168 58.9269 53.6929C59.7859 53.4691 60.6867 53.5657 61.462 53.9648C61.3531 53.8756 61.2379 53.7943 61.1173 53.7218C60.3341 53.2194 59.3801 53.0486 58.4545 53.245C57.5289 53.4414 56.7033 53.9898 56.1501 54.7757C55.5969 55.5617 55.3588 56.5244 55.4856 57.4628C55.6124 58.4012 56.0942 59.2428 56.8305 59.8118L56.873 59.7515Z" fill="#E6FAFF"/>
<path d="M57.2331 59.9727C58.0085 60.3718 58.9092 60.4684 59.7682 60.2446C60.6273 60.0207 61.3863 59.4916 61.9046 58.7553C62.4228 58.019 62.6652 57.1256 62.5866 56.2406C62.5081 55.3557 62.114 54.5393 61.4774 53.9429C60.702 53.5438 59.8013 53.4471 58.9423 53.671C58.0832 53.8949 57.3242 54.424 56.8059 55.1603C56.2877 55.8966 56.0453 56.79 56.1239 57.675C56.2024 58.5599 56.5965 59.3763 57.2331 59.9727Z" fill="#81EAFF"/>
<path d="M54.729 75.3776L54.7295 75.3842C54.837 76.6768 55.9629 77.6047 57.2443 77.4568L65.9304 76.4543C67.2118 76.3064 68.1634 75.1386 68.056 73.8461L68.0554 73.8395C67.948 72.5469 66.8221 71.619 65.5407 71.7669L56.8546 72.7694C55.5732 72.9174 54.6215 74.0851 54.729 75.3776Z" fill="#397C8C"/>
<path d="M56.2431 76.539L56.2436 76.5456C56.3445 77.839 57.4657 78.7729 58.7477 78.6315L67.4377 77.6734C68.7197 77.5321 69.6772 76.369 69.5762 75.0757L69.5757 75.0691C69.4747 73.7757 68.3536 72.8418 67.0716 72.9832L58.3815 73.9413C57.0995 74.0826 56.1421 75.2457 56.2431 76.539Z" fill="#E6FAFF"/>
<path d="M55.3833 75.8356L55.3839 75.8422C55.4913 77.1347 56.6173 78.0626 57.8987 77.9147L66.5847 76.9122C67.8661 76.7643 68.8178 75.5966 68.7103 74.304L68.7098 74.2974C68.6023 73.0048 67.4764 72.0769 66.195 72.2248L57.509 73.2274C56.2276 73.3753 55.2759 74.543 55.3833 75.8356Z" fill="#489FB3"/>
<path d="M60.0012 80.1334C59.0515 80.6403 58.25 81.3976 57.6844 82.3225C57.1188 83.2473 56.8109 84.304 56.7942 85.3771L56.709 90.4926C56.7374 91.0048 57.3945 91.706 57.5412 91.4075L58.3373 88.5403C58.3929 88.4301 58.4787 88.338 58.5842 88.2752C58.6897 88.2125 58.8101 88.1819 58.9306 88.1874C59.051 88.1928 59.1661 88.2339 59.2617 88.3057C59.3572 88.3775 59.429 88.4768 59.468 88.5912L61.0668 93.2536C61.2696 94.2168 62.1569 94.3995 62.2442 93.9935L62.9834 87.994C63.0021 87.8664 63.0569 87.7459 63.1412 87.6471C63.2254 87.5484 63.3354 87.4757 63.4579 87.4378C63.5804 87.4 63.71 87.3986 63.831 87.4338C63.9521 87.4691 64.0593 87.5395 64.1398 87.6365L67.5228 91.162C67.5922 91.2351 67.6821 91.2851 67.7812 91.3054C67.8803 91.3257 67.984 91.3154 68.0791 91.276C68.1742 91.2365 68.2564 91.1695 68.3151 91.0837C68.3738 90.9979 68.4064 90.8971 68.4087 90.7941L68.5523 85.3589C68.5844 84.0691 68.203 82.816 67.4652 81.7872C66.7274 80.7584 65.6729 80.0091 64.4593 79.6514C62.9853 79.2218 61.3864 79.3946 60.0012 80.1334Z" fill="#397C8C"/>
<path d="M61.207 81.2951C60.2582 81.8033 59.4576 82.5608 58.8921 83.4854C58.3267 84.4099 58.0181 85.4661 58 86.5389L57.4255 91.3011C57.4211 91.6343 58.099 91.7761 58.2379 91.4885L59.5522 89.7003C59.6082 89.5917 59.6936 89.5009 59.7982 89.4391C59.9028 89.3772 60.022 89.347 60.1413 89.352C60.2606 89.357 60.3748 89.397 60.47 89.4672C60.5653 89.5374 60.6374 89.6348 60.6777 89.7474L61.8251 94.1491C61.9567 94.5371 62.9101 94.3891 62.9974 93.9832L64.1892 89.1558C64.2094 89.0294 64.2649 88.9105 64.3492 88.8133C64.4335 88.7161 64.543 88.6446 64.6646 88.6075C64.7861 88.5703 64.9146 88.5691 65.0347 88.6039C65.1548 88.6387 65.2614 88.7081 65.3417 88.8037L68.2262 91.9777C68.3375 92.0553 68.4667 92.1035 68.6026 92.1182C68.7384 92.1329 68.8767 92.1135 69.0055 92.0619C69.1342 92.0103 69.2494 91.9279 69.3411 91.8219C69.4327 91.716 69.498 91.5897 69.5312 91.4542L69.7581 86.5207C69.7893 85.23 69.4064 83.9764 68.6669 82.9478C67.9274 81.9192 66.871 81.1708 65.6559 80.8149C64.185 80.3858 62.5895 80.5581 61.207 81.2951Z" fill="#E6FAFF"/>
<path d="M60.5122 80.8054C59.5625 81.3124 58.761 82.0697 58.1954 82.9945C57.6298 83.9193 57.3218 84.976 57.3052 86.0491L57.2291 91.1629C57.2241 91.2347 57.2442 91.3052 57.2859 91.362C57.3276 91.4188 57.3882 91.4583 57.4571 91.4736C57.526 91.4888 57.5987 91.4789 57.6625 91.4454C57.7263 91.412 57.777 91.3572 57.8058 91.2907L58.8521 89.2068C58.9077 89.0967 58.9935 89.0045 59.099 88.9418C59.2045 88.879 59.3249 88.8485 59.4454 88.8539C59.5658 88.8593 59.681 88.9005 59.7765 88.9723C59.8721 89.044 59.9438 89.1433 59.9828 89.2577L61.5777 93.9256C61.6075 94.0077 61.663 94.077 61.7358 94.1235C61.8087 94.1699 61.8951 94.1909 61.9823 94.1834C62.0694 94.1758 62.1528 94.1402 62.2199 94.0817C62.287 94.0232 62.3344 93.9449 62.355 93.8585L63.4905 88.6715C63.5109 88.546 63.5663 88.428 63.6499 88.3314C63.7336 88.2348 63.8422 88.1635 63.9628 88.1261C64.0834 88.0887 64.211 88.0867 64.3306 88.1203C64.4502 88.1539 64.5568 88.2217 64.6377 88.3157L68.0208 91.8412C68.0901 91.9144 68.1801 91.9643 68.2792 91.9846C68.3782 92.0049 68.482 91.9947 68.5771 91.9552C68.6722 91.9157 68.7543 91.8488 68.813 91.7629C68.8717 91.6771 68.9043 91.5763 68.9066 91.4734L69.0594 86.0364C69.0906 84.7457 68.7077 83.4921 67.9682 82.4635C67.2287 81.4349 66.1723 80.6866 64.9572 80.3306C63.4882 79.9009 61.8942 80.0711 60.5122 80.8054Z" fill="#489FB3"/>
</g>
</g>
<defs>
<clipPath id="clip0_179_108978">
<rect width="86.7379" height="87.8266" fill="white" transform="matrix(0.794725 -0.60697 0.612994 0.790088 0 53.1898)"/>
</clipPath>
<clipPath id="clip1_179_108978">
<rect width="78.0641" height="79.0439" fill="white" transform="matrix(0.794725 -0.60697 0.612994 0.790088 6.13849 54.0269)"/>
</clipPath>
</defs>
</svg>
