<svg width="117" height="120" viewBox="0 0 117 120" fill="none" xmlns="http://www.w3.org/2000/svg">
<g clip-path="url(#clip0_179_108980)">
<g clip-path="url(#clip1_179_108980)">
<path d="M93.8999 78.4294C85.4225 97.5862 62.3154 105.782 42.2873 96.7366C37.5233 94.5879 33.2029 91.5621 29.5731 87.8323C25.9432 84.1024 23.0752 79.7416 21.1328 74.9991C19.1905 70.2567 18.212 65.2256 18.2533 60.1936C18.2946 55.1615 19.3549 50.2272 21.3735 45.6727C29.8509 26.516 52.958 18.3198 72.9861 27.3655C76.7609 29.0658 80.2641 31.3188 83.3695 34.0433C95.9706 45.1279 100.738 62.9774 93.8999 78.4294Z" fill="#994D17"/>
<path d="M95.8098 74.1133C87.3331 93.2684 64.2253 101.466 44.1972 92.4205C39.4337 90.2712 35.1138 87.2451 31.4844 83.5152C27.855 79.7852 24.9872 75.4245 23.045 70.6822C21.1027 65.94 20.1241 60.9092 20.165 55.8773C20.2059 50.8455 21.2656 45.9112 23.2834 41.3566C31.7608 22.1999 54.8679 14.0037 74.896 23.0494C79.6617 25.1962 83.9838 28.2209 87.615 31.9505C91.2463 35.68 94.1153 40.0412 96.0579 44.7843C98.0005 49.5274 98.9785 54.5593 98.9359 59.592C98.8934 64.6247 97.8311 69.5593 95.8098 74.1133Z" fill="#FFEA80"/>
<path d="M94.9231 76.1172C86.4457 95.2739 63.3386 103.47 43.3105 94.4244C38.547 92.2751 34.2271 89.249 30.5977 85.519C26.9683 81.789 24.1005 77.4283 22.1583 72.6861C20.2161 67.9438 19.2374 62.913 19.2783 57.8812C19.3192 52.8493 20.3789 47.9151 22.3967 43.3605C30.8741 24.2037 53.9813 16.0075 74.0093 25.0533C77.7838 26.7547 81.2865 29.0089 84.3912 31.7345C96.9938 42.8156 101.759 60.6703 94.9231 76.1172Z" fill="#FFCF40"/>
<path d="M94.9231 76.1172C86.4457 95.2739 63.3386 103.47 43.3105 94.4244C37.2012 91.6765 31.845 87.4905 27.7437 82.2583L84.3912 31.7345C96.9938 42.8156 101.759 60.6703 94.9231 76.1172Z" fill="#F7A831"/>
<path d="M73.4044 59.2318L51.3888 49.2885C51.0012 49.1064 50.6973 48.7848 50.5439 48.3942C50.3905 48.0036 50.4 47.5759 50.5704 47.205L53.5465 40.4799C53.9179 39.62 54.6297 38.9522 55.5265 38.6222C56.4234 38.2923 57.4324 38.327 58.3332 38.7187L75.1036 46.2931C76.2999 46.8366 77.5867 47.1443 78.887 47.1976C80.1874 47.2509 81.4749 47.0489 82.6726 46.6035L83.4534 46.3194L85.386 46.6251L86.2484 44.6763C86.3109 44.5642 86.3629 44.4465 86.404 44.3247L86.5452 44.0056L86.4934 43.9823C86.5195 43.8416 86.5334 43.6986 86.535 43.5547C86.5429 43.0761 86.4028 42.6004 86.1328 42.1892C85.8627 41.7781 85.4753 41.4506 85.0207 41.2491L73.9594 36.2532L74.4389 35.1696C74.6662 34.656 74.7855 34.0996 74.79 33.5323C74.7945 32.965 74.6841 32.3977 74.4651 31.8631C74.2461 31.3284 73.9229 30.8367 73.5137 30.4161C73.1046 29.9954 72.6176 29.6541 72.0806 29.4116C71.5437 29.169 70.9672 29.03 70.3841 29.0025C69.801 28.975 69.2227 29.0595 68.6823 29.2512C68.1418 29.4429 67.6498 29.738 67.2343 30.1198C66.8188 30.5015 66.488 30.9623 66.2607 31.4759L65.7834 32.5544L61.8478 30.7768C55.4964 27.9083 48.1061 30.6045 45.3701 36.787L41.4508 45.6435C39.6852 49.6332 41.5844 54.3874 45.686 56.2399L67.7033 66.1841C67.8964 66.2735 68.0711 66.3984 68.2172 66.5518C68.3633 66.7052 68.478 66.8839 68.5547 67.0778C68.6314 67.2717 68.6686 67.4769 68.6642 67.6817C68.6597 67.8864 68.6138 68.0866 68.5289 68.2707L65.5361 75.0335C65.1708 75.8836 64.4682 76.5443 63.5823 76.8706C62.6964 77.197 61.6994 77.1625 60.8096 76.7747L43.9875 69.177C42.7912 68.6334 41.5045 68.3258 40.2041 68.2725C38.9037 68.2191 37.6163 68.4212 36.4185 68.8666L34.1211 69.7045C33.6171 69.8887 33.1946 70.2294 32.9165 70.6756C32.8017 70.8623 32.7126 71.0636 32.6514 71.2745L31.7898 73.2216L33.0672 73.4259C33.3311 73.7755 33.6827 74.0544 34.086 74.2341L45.1473 79.23L44.67 80.3085C44.211 81.3458 44.2016 82.5352 44.6438 83.6151C45.0861 84.6949 45.9438 85.5767 47.0283 86.0665C48.1128 86.5564 49.3353 86.614 50.4267 86.2269C51.5182 85.8398 52.3892 85.0395 52.8483 84.0022L53.3255 82.9237L57.3005 84.719C63.6286 87.5771 70.9954 84.8907 73.7215 78.7304L77.6589 69.8329C79.4092 65.8342 77.5078 61.0851 73.4044 59.2318Z" fill="#592D0D"/>
<path d="M71.9046 62.6209L49.8891 52.6775C49.5018 52.495 49.1983 52.1734 49.0449 51.783C48.8915 51.3925 48.9008 50.9651 49.0707 50.5941L52.0461 43.8706C52.4177 43.0113 53.1296 42.344 54.0262 42.0144C54.9228 41.6847 55.9314 41.7195 56.832 42.1112L73.6023 49.6855C74.7987 50.2291 76.0854 50.5367 77.3858 50.59C78.6862 50.6434 79.9736 50.4413 81.1714 49.9959L83.4695 49.1563C83.9317 48.9872 84.3267 48.6866 84.6048 48.2923C84.8829 47.8981 85.0316 47.4277 85.0324 46.9404C85.0405 46.4616 84.9006 45.9857 84.6307 45.5743C84.3608 45.1629 83.9735 44.835 83.5189 44.6331L72.4612 39.6389L72.9384 38.5604C73.1657 38.0467 73.285 37.4904 73.2895 36.923C73.294 36.3557 73.1836 35.7885 72.9646 35.2538C72.7457 34.7191 72.4224 34.2274 72.0132 33.8068C71.6041 33.3862 71.1171 33.0448 70.5802 32.8023C70.0432 32.5598 69.4667 32.4208 68.8836 32.3933C68.3005 32.3658 67.7222 32.4503 67.1818 32.642C66.6413 32.8336 66.1493 33.1288 65.7338 33.5105C65.3183 33.8922 64.9875 34.353 64.7602 34.8667L64.2829 35.9451L60.3473 34.1676C53.9959 31.299 46.6056 33.9952 43.8696 40.1777L39.9496 49.036C38.1832 53.0274 40.0832 57.7799 44.1848 59.6324L66.2021 69.5766C66.5892 69.7589 66.8925 70.0806 67.0456 70.4709C67.1987 70.8613 67.189 71.2886 67.0187 71.6592L64.0267 78.4202C63.6618 79.2707 62.9592 79.9317 62.0732 80.2581C61.1871 80.5845 60.1899 80.5497 59.3002 80.1614L42.4871 72.5677C41.2907 72.0241 40.004 71.7165 38.7036 71.6632C37.4032 71.6099 36.1158 71.8119 34.918 72.2573L32.6199 73.0969C32.1563 73.267 31.7606 73.5695 31.4829 73.9661C31.2053 74.3627 31.0582 74.8355 31.0604 75.3246C31.0522 75.8033 31.1922 76.2793 31.4621 76.6907C31.732 77.1021 32.1193 77.43 32.5739 77.6319L43.6352 82.6277L43.1587 83.7045C42.6996 84.7418 42.6902 85.9313 43.1324 87.0111C43.5747 88.0909 44.4324 88.9728 45.5169 89.4626C46.6014 89.9524 47.8239 90.0101 48.9153 89.6229C50.0068 89.2358 50.8778 88.4355 51.3369 87.3982L51.8134 86.3215L55.7883 88.1167C62.1165 90.9749 69.484 88.2868 72.2101 82.1264L76.1505 73.2221C77.9079 69.2267 76.008 64.4742 71.9046 62.6209Z" fill="#FFCF40"/>
<path d="M72.5435 61.1772L50.528 51.2338C50.1407 51.0514 49.8371 50.7297 49.6838 50.3393C49.5304 49.9488 49.5397 49.5214 49.7096 49.1504L52.6849 42.427C53.0566 41.5676 53.7684 40.9003 54.665 40.5707C55.5617 40.2411 56.5703 40.2759 57.4708 40.6675L74.2412 48.2419C75.4375 48.7854 76.7243 49.093 78.0247 49.1464C79.3251 49.1997 80.6125 48.9976 81.8102 48.5523L84.1084 47.7127C84.5706 47.5435 84.9656 47.2429 85.2436 46.8487C85.5217 46.4544 85.6705 45.984 85.6713 45.4967C85.6794 45.018 85.5394 44.5421 85.2695 44.1307C84.9997 43.7192 84.6123 43.3913 84.1578 43.1894L73.1 38.1952L73.5773 37.1167C73.8046 36.6031 73.9239 36.0467 73.9284 35.4794C73.9329 34.912 73.8225 34.3448 73.6035 33.8101C73.3845 33.2754 73.0612 32.7838 72.6521 32.3631C72.243 31.9425 71.756 31.6012 71.219 31.3586C70.682 31.1161 70.1055 30.9771 69.5224 30.9496C68.9393 30.9221 68.3611 31.0066 67.8206 31.1983C67.2802 31.39 66.7882 31.6851 66.3727 32.0668C65.9572 32.4485 65.6264 32.9094 65.3991 33.423L64.9218 34.5015L60.9861 32.7239C54.6348 29.8553 47.2444 32.5515 44.5085 38.734L40.5892 47.5906C38.8229 51.582 40.7228 56.3345 44.8244 58.187L66.8417 68.1312C67.2288 68.3136 67.5322 68.6352 67.6852 69.0255C67.8383 69.4159 67.8286 69.8432 67.6583 70.2138L64.6656 76.9765C64.3006 77.827 63.5981 78.488 62.712 78.8144C61.826 79.1408 60.8288 79.1061 59.9391 78.7177L43.1259 71.124C41.9296 70.5805 40.6428 70.2729 39.3425 70.2195C38.0421 70.1662 36.7546 70.3682 35.5569 70.8136L33.2587 71.6532C32.7966 71.8225 32.4018 72.1232 32.124 72.5177C31.8462 72.9122 31.6979 73.3827 31.6976 73.87C31.6895 74.3487 31.8295 74.8246 32.0994 75.2361C32.3692 75.6475 32.7566 75.9754 33.2111 76.1773L44.2724 81.1731L43.7959 82.2499C43.3369 83.2872 43.3275 84.4766 43.7697 85.5565C44.212 86.6363 45.0697 87.5182 46.1542 88.008C47.2387 88.4978 48.4612 88.5555 49.5526 88.1683C50.6441 87.7812 51.5151 86.9809 51.9742 85.9436L52.4507 84.8668L56.4256 86.6621C62.7537 89.5202 70.1212 86.8321 72.8474 80.6718L76.784 71.776C78.5468 67.783 76.6469 63.0305 72.5435 61.1772Z" fill="#994D17"/>
</g>
</g>
<defs>
<clipPath id="clip0_179_108980">
<rect width="88.423" height="89.5328" fill="white" transform="matrix(0.911357 0.411616 -0.404677 0.91446 36.415 0.757996)"/>
</clipPath>
<clipPath id="clip1_179_108980">
<rect width="79.5807" height="80.5795" fill="white" transform="matrix(0.911357 0.411616 -0.404677 0.91446 38.6327 6.67152)"/>
</clipPath>
</defs>
</svg>
