<svg width="88" height="87" viewBox="0 0 88 87" fill="none" xmlns="http://www.w3.org/2000/svg">
<g clip-path="url(#clip0_179_108981)">
<path d="M68.0614 64.4556C66.6454 65.0963 65.0734 65.3255 63.5228 65.1171L53.5841 63.931L48.179 72.2743C47.3538 73.5908 46.1744 74.6451 44.7738 75.3182C43.6281 75.8378 42.3772 76.0919 41.113 76.0619C39.8489 76.0319 38.6037 75.7186 37.4692 75.1449C36.335 74.5708 35.3438 73.7459 34.5717 72.7335C33.7996 71.7211 33.2671 70.548 33.0151 69.3045L30.9499 59.4679L21.2289 56.8266C19.6231 56.3842 18.1785 55.4752 17.0792 54.2151C15.9799 52.955 15.2756 51.4009 15.0558 49.7507C14.8361 48.1004 15.1109 46.4287 15.8453 44.9482C16.5796 43.4677 17.7404 42.2454 19.1797 41.437L27.87 36.5683L27.2742 26.5412C27.1803 24.8832 27.5803 23.2412 28.4233 21.8238C29.2663 20.4064 30.5143 19.2774 32.009 18.5803C33.5036 17.8831 35.1774 17.6491 36.8179 17.9081C38.4585 18.1671 39.9917 18.9073 41.2231 20.0347L48.6516 26.8747L57.9766 23.3401C59.5226 22.756 61.2135 22.6481 62.834 23.0302C64.4544 23.4123 65.9312 24.267 67.0763 25.4856C68.2214 26.7042 68.983 28.2316 69.2642 29.8733C69.5454 31.515 69.3334 33.1967 68.6553 34.7045L64.5573 43.7916L70.9018 51.6322C71.7097 52.6164 72.2841 53.7699 72.5808 55.0041C72.8775 56.2383 72.8886 57.5203 72.6134 58.7518C72.3361 59.9897 71.7829 61.1454 70.9949 62.1329C70.2068 63.1204 69.2041 63.9143 68.0614 64.4556Z" fill="#CC7529"/>
<path d="M68.4023 28.4036C68.5735 29.8893 68.3378 31.3881 67.7204 32.7389L63.6225 41.8261L69.9788 49.6611C70.7846 50.6475 71.3567 51.8024 71.6513 53.0374C71.946 54.2725 71.9552 55.5548 71.6785 56.7863C71.4054 58.0189 70.8576 59.1703 70.0756 60.1549C69.2937 61.1396 68.2978 61.9321 67.162 62.4735C65.7498 63.1129 64.1814 63.3402 62.6352 63.1296L52.6847 61.9489L51.5762 63.7177L47.3022 70.3399C46.3494 71.8251 44.9436 72.9602 43.2896 73.5799C41.6357 74.1995 39.8201 74.2712 38.1077 73.7845C37.5625 73.644 37.0345 73.4409 36.5343 73.1793C35.2903 72.5555 34.2217 71.6261 33.4298 70.4792C32.7745 69.5313 32.3155 68.4632 32.0802 67.3389L29.9914 57.5134L22.3142 55.4033L20.3172 54.8794C18.7048 54.4432 17.2526 53.5369 16.1465 52.2765C15.0403 51.0161 14.3306 49.4589 14.108 47.8043C13.8854 46.1496 14.1602 44.4727 14.8972 42.9883C15.6341 41.5038 16.7997 40.2793 18.2448 39.4715L26.9125 34.5551L26.3619 24.6234C26.2603 22.9744 26.6481 21.3388 27.4764 19.9227C28.3047 18.5066 29.5365 17.3734 31.0166 16.6659C32.4966 15.9584 34.1586 15.7083 35.7931 15.9471C37.4276 16.1859 38.9614 16.903 40.2012 18.0079L40.3227 18.1113L47.7058 24.856L56.7651 21.4308L57.0134 21.3151C58.9566 20.5859 61.1125 20.6195 63.0525 21.4091C64.2277 21.8785 65.2874 22.6022 66.155 23.528C67.4165 24.8684 68.2064 26.5822 68.4023 28.4036Z" fill="#FFCA4D"/>
<path d="M56.7877 21.4785L33.3942 70.4958C32.739 69.5479 32.2799 68.4798 32.0447 67.3555L29.9913 57.5134L22.3142 55.4034L40.1785 17.9603L40.2999 18.0637L47.7058 24.8561L56.7877 21.4785Z" fill="#FFEF8C"/>
<path d="M68.4022 28.4037L51.5761 63.7178L47.3021 70.3399C46.3493 71.8251 44.9435 72.9603 43.2895 73.5799C41.6355 74.1995 39.82 74.2712 38.1076 73.7845L63.0822 21.3807C64.2494 21.8622 65.2988 22.5956 66.1549 23.528C67.4164 24.8684 68.2063 26.5823 68.4022 28.4037Z" fill="#FFEF8C"/>
<path d="M37.0336 22.9786L45.658 30.9055C46.0518 31.2717 46.5388 31.5215 47.0636 31.6265C47.5884 31.7316 48.1302 31.6877 48.6274 31.4999L58.8652 25.269C61.3145 24.3448 64.1703 28.9512 63.1642 31.269L58.3668 41.8614C58.1494 42.3481 58.0723 42.8877 58.1443 43.4196C58.2162 43.9516 58.4343 44.455 58.7742 44.8735L65.2353 52.0483C65.8826 52.7566 66.2693 53.6632 66.3304 54.6156C66.3915 55.568 66.1232 56.508 65.5707 57.2773C65.1609 57.7258 64.6457 58.0649 64.0706 58.2646C63.4955 58.4643 62.8782 58.5185 62.2733 58.4224L52.0363 57.1861C51.5066 57.1196 50.9708 57.2032 50.49 57.4274C50.0093 57.6517 49.603 58.0075 49.3175 58.4544L43.6166 67.2995C43.1399 68.0873 42.3867 68.6668 41.5018 68.9264C39.186 69.5845 37.4734 67.4723 36.9686 65.3789L35.4393 55.7581C35.3298 55.2321 35.0767 54.745 34.7083 54.3514C34.3399 53.9577 33.8707 53.673 33.3533 53.529L22.1387 50.42C19.6577 49.7288 17.9458 45.0982 20.2118 43.9103L31.5341 39.4731C31.997 39.2131 32.3761 38.8274 32.6285 38.3598C32.8809 37.8922 32.9965 37.3614 32.9621 36.8275L32.2815 25.1953C32.2598 24.6345 32.4023 24.0819 32.6915 23.6055C32.9808 23.129 33.404 22.7496 33.9092 22.514C34.4143 22.2784 34.9793 22.1968 35.5345 22.2794C36.0896 22.3619 36.6107 22.605 37.0336 22.9786Z" fill="#351699"/>
<path d="M57.3582 39.7411C57.1409 40.2254 57.0633 40.7627 57.1343 41.2925C57.2053 41.8224 57.4219 42.3241 57.7599 42.7412L65.1391 51.8458C65.5094 52.2926 65.7385 52.8389 65.7963 53.4136C65.8542 53.9883 65.7382 54.5649 65.4636 55.0682C65.1889 55.5716 64.7682 55.9785 64.2561 56.236C63.7441 56.4935 63.1644 56.5898 62.5925 56.5123L51.0273 55.0951C50.496 55.036 49.9606 55.1234 49.4792 55.3479C48.9978 55.5725 48.5888 55.9255 48.2966 56.3688L42.0356 66.1011C41.7261 66.5771 41.2812 66.9485 40.7573 67.1683C40.2334 67.3881 39.654 67.4464 39.0925 67.3358C38.531 67.2253 38.0127 66.9507 37.6032 66.5471C37.1937 66.1434 36.9114 65.6288 36.792 65.0683L34.4132 53.6314C34.3003 53.1078 34.045 52.6238 33.6757 52.2334C33.3063 51.8429 32.8374 51.5612 32.321 51.4197L21.1301 48.2996C20.6519 48.1775 20.2129 47.9309 19.8581 47.585C19.5032 47.2391 19.2451 46.8063 19.1101 46.3308C18.8953 45.7034 18.9072 45.0232 19.1437 44.4098C19.3802 43.7964 19.8262 43.289 20.4033 42.9767L30.4967 37.3226C30.9585 37.0591 31.3373 36.6722 31.5913 36.2046C31.8453 35.7369 31.9647 35.2064 31.9365 34.6714L31.2317 23.0795C31.1997 22.5105 31.3371 21.9471 31.6264 21.4607C31.9158 20.9743 32.3441 20.5869 32.8571 20.3477C33.37 20.1084 33.9444 20.0281 34.5074 20.1169C35.0704 20.2057 35.5966 20.4596 36.0193 20.8464L44.6494 28.7852C45.0473 29.1487 45.5364 29.3961 46.0626 29.5001C46.5889 29.604 47.1316 29.5604 47.6306 29.374L58.4607 25.2684C58.9918 25.0737 59.5708 25.0411 60.1247 25.1748C60.6787 25.3086 61.1831 25.6027 61.5747 26.0202C61.9662 26.4377 62.2273 26.9601 62.3254 27.5217C62.4234 28.0834 62.354 28.6593 62.1258 29.1771L57.3582 39.7411Z" fill="#7045E6"/>
<path d="M45.7765 29.4239L35.854 60.4553L34.4306 53.6379C34.3237 53.1073 34.0694 52.6159 33.6972 52.2203C33.325 51.8247 32.85 51.5412 32.3271 51.4024L21.13 48.2997C20.5771 48.1495 20.0793 47.8382 19.7002 47.4056C19.3211 46.9731 19.0779 46.4388 19.0017 45.8713C18.9255 45.3037 19.0198 44.7285 19.2724 44.2193C19.5251 43.7101 19.9247 43.2899 20.4202 43.0125L30.5079 37.3465C30.971 37.0869 31.3513 36.7028 31.6066 36.2368C31.8618 35.7708 31.9818 35.2413 31.9534 34.7073L31.261 23.0805C31.2253 22.5087 31.3609 21.9415 31.6502 21.4517C31.9396 20.9619 32.3697 20.5718 32.8853 20.3313C33.4008 20.0908 33.9785 20.0109 34.5442 20.1019C35.1098 20.1928 35.6378 20.4505 36.0603 20.8418L44.6848 28.7687C44.991 29.0724 45.3658 29.2973 45.7765 29.4239Z" fill="#8559FF"/>
<path d="M46.1832 48.3742C49.5324 46.812 50.9459 42.8096 49.3404 39.4348C47.7348 36.0599 43.7182 34.5905 40.369 36.1527C37.0198 37.7149 35.6063 41.7172 37.2119 45.0921C38.8174 48.467 42.8341 49.9364 46.1832 48.3742Z" fill="#351699"/>
<path d="M50.2872 41.3946C50.9838 42.908 51.1017 44.618 50.6183 46.1971C50.1349 47.7762 49.0842 49.1133 47.6675 49.9523C46.2508 50.7914 44.5677 51.0734 42.9405 50.7443C41.3133 50.4153 39.8565 49.4983 38.849 48.169C37.8416 46.8397 37.3544 45.1916 37.4807 43.5403C37.607 41.889 38.338 40.3507 39.5337 39.2199C40.7293 38.0892 42.3056 37.4455 43.9605 37.4123C45.6154 37.379 47.2326 37.9584 48.5024 39.0396C49.2656 39.6819 49.8758 40.4871 50.2872 41.3946Z" fill="#FFCA4D"/>
<path d="M48.5022 39.0397L42.8817 50.8166C41.8935 50.5858 40.967 50.1355 40.1713 49.4991C39.3756 48.8627 38.7311 48.0567 38.2859 47.141C37.8407 46.2254 37.6062 45.2237 37.6 44.2107C37.5937 43.1976 37.8158 42.1993 38.2497 41.2901C38.6837 40.3809 39.3182 39.5842 40.1061 38.9594C40.8941 38.3345 41.8151 37.8977 42.8005 37.6814C43.7859 37.4651 44.8104 37.4749 45.7976 37.7101C46.7848 37.9453 47.7093 38.3997 48.5022 39.0397Z" fill="#FFEF8C"/>
</g>
<defs>
<clipPath id="clip0_179_108981">
<rect width="64.7119" height="65.5241" fill="white" transform="matrix(0.906258 -0.422726 0.429602 0.903018 0.349121 27.3554)"/>
</clipPath>
</defs>
</svg>
