<?xml version="1.0" encoding="UTF-8"?>
<svg width="201px" height="200px" viewBox="0 0 201 200" version="1.1" xmlns="http://www.w3.org/2000/svg" xmlns:xlink="http://www.w3.org/1999/xlink">
    <title>INSTA</title>
    <g id="OLD" stroke="none" stroke-width="1" fill="none" fill-rule="evenodd">
        <g id="SOCIAL" transform="translate(-669.000000, 0.000000)">
            <g id="INSTA" transform="translate(669.230769, 0.000000)">
                <g id="Group-12">
                    <circle id="Oval-Copy-3" stroke="#D2D2D2" stroke-width="5" cx="100" cy="100" r="97.5"></circle>
                    <path d="M145.876923,119.028571 C145.118681,135.808791 135.775824,145.105495 119.035165,145.876923 C114.10989,146.101099 112.534066,146.153846 100,146.153846 C87.4659341,146.153846 85.8967033,146.101099 80.9714286,145.876923 C64.1978022,145.105495 54.8945055,135.795604 54.1230769,119.028571 C53.8989011,114.10989 53.8461538,112.534066 53.8461538,100 C53.8461538,87.4659341 53.8989011,85.8967033 54.1230769,80.9714286 C54.8945055,64.1978022 64.2043956,54.8945055 80.9714286,54.1296703 C85.8967033,53.8989011 87.4659341,53.8461538 100,53.8461538 C112.534066,53.8461538 114.10989,53.8989011 119.035165,54.1296703 C135.815385,54.9010989 145.125275,64.2307692 145.876923,80.9714286 C146.101099,85.8967033 146.153846,87.4659341 146.153846,100 C146.153846,112.534066 146.101099,114.10989 145.876923,119.028571 Z" id="Path" fill="#000000"></path>
                    <path d="M100,123.703297 C86.9120879,123.703297 76.2967033,113.094505 76.2967033,100 C76.2967033,86.9120879 86.9120879,76.3032967 100,76.3032967 C113.087912,76.3032967 123.703297,86.9120879 123.703297,100 C123.703297,113.087912 113.087912,123.703297 100,123.703297 Z" id="Path" fill="#FFFFFF"></path>
                    <path d="M124.63956,80.9054945 C121.58022,80.9054945 119.101099,78.4263736 119.101099,75.367033 C119.101099,72.3076923 121.58022,69.8285714 124.63956,69.8285714 C127.698901,69.8285714 130.178022,72.3076923 130.178022,75.367033 C130.178022,78.4197802 127.698901,80.9054945 124.63956,80.9054945 L124.63956,80.9054945 Z" id="Path" fill="#FFFFFF"></path>
                    <path d="M115.382418,100 C115.382418,108.498901 108.492308,115.382418 100,115.382418 C91.5076923,115.382418 84.6175824,108.498901 84.6175824,100 C84.6175824,91.5010989 91.5076923,84.6175824 100,84.6175824 C108.492308,84.6175824 115.382418,91.5010989 115.382418,100 Z" id="Path" fill="#000000"></path>
                </g>
                <g id="Group-4" transform="translate(53.846154, 53.846154)"></g>
            </g>
        </g>
    </g>
</svg>