<?xml version="1.0" encoding="UTF-8"?>
<svg width="201px" height="200px" viewBox="0 0 201 200" version="1.1" xmlns="http://www.w3.org/2000/svg" xmlns:xlink="http://www.w3.org/1999/xlink">
    <title>twitter</title>
    <g id="OLD" stroke="none" stroke-width="1" fill="none" fill-rule="evenodd">
        <g id="SOCIAL" transform="translate(-338.000000, 0.000000)">
            <g id="twitter" transform="translate(338.461538, 0.000000)">
                <circle id="Oval-Copy" stroke="#D2D2D2" stroke-width="5" cx="100" cy="100" r="97.5"></circle>
                <path d="M153.846154,72.3269231 C150.45,73.8346154 146.8,74.85 142.969231,75.3076923 C146.880769,72.9653846 149.884615,69.2538462 151.296154,64.8307692 C147.638462,67 143.584615,68.5769231 139.269231,69.4269231 C135.819231,65.7461538 130.892308,63.4461538 125.446154,63.4461538 C113.219231,63.4461538 104.234615,74.8538462 106.996154,86.6961538 C91.2615385,85.9076923 77.3076923,78.3692308 67.9653846,66.9115385 C63.0038462,75.4230769 65.3923077,86.5576923 73.8230769,92.1961538 C70.7230769,92.0961538 67.8,91.2461538 65.25,89.8269231 C65.0423077,98.6 71.3307692,106.807692 80.4384615,108.634615 C77.7730769,109.357692 74.8538462,109.526923 71.8846154,108.957692 C74.2923077,116.480769 81.2846154,121.953846 89.5769231,122.107692 C81.6153846,128.35 71.5846154,131.138462 61.5384615,129.953846 C69.9192308,135.326923 79.8769231,138.461538 90.5692308,138.461538 C125.730769,138.461538 145.596154,108.765385 144.396154,82.1307692 C148.096154,79.4576923 151.307692,76.1230769 153.846154,72.3269231 Z" id="Path" fill="#000000" fill-rule="nonzero"></path>
            </g>
        </g>
    </g>
</svg>