<svg width="32" height="32" viewBox="0 0 32 32" fill="none" xmlns="http://www.w3.org/2000/svg">
<g clip-path="url(#clip0_485_16026)">
<path d="M16 27.5332C22.3696 27.5332 27.5332 22.3696 27.5332 16C27.5332 9.63039 22.3696 4.4668 16 4.4668C9.63039 4.4668 4.4668 9.63039 4.4668 16C4.4668 22.3696 9.63039 27.5332 16 27.5332Z" fill="white"/>
<path d="M29.9832 15.3169C29.8614 12.7348 29.0238 10.2374 27.564 8.10406C27.3372 7.77366 27.0992 7.45446 26.8444 7.14646C26.3967 6.5988 25.9081 6.08587 25.3828 5.61206C25.1028 5.36846 24.8228 5.13326 24.5428 4.90926C24.3104 4.73006 24.0752 4.55926 23.8288 4.39406C21.771 3.00602 19.3812 2.19004 16.9042 2.02972C14.4272 1.86941 11.9521 2.37053 9.73254 3.48173C7.51299 4.59293 5.62877 6.27426 4.27296 8.35343C2.91715 10.4326 2.1385 12.8349 2.0168 15.3141C2 15.5409 2 15.7705 2 16.0001C2 16.0953 2 16.1905 2 16.2801C2.01072 16.9529 2.07156 17.6239 2.182 18.2877C2.2408 18.6545 2.3164 19.0185 2.406 19.3769C2.518 19.8221 2.6496 20.2617 2.8008 20.6873C3.04228 21.3562 3.33626 22.005 3.68 22.6277C3.8256 22.9077 3.9796 23.1681 4.1448 23.4285C5.11934 24.9876 6.39184 26.3391 7.88945 27.4058C9.38707 28.4724 11.0804 29.2332 12.8724 29.6445C13.1188 29.7033 13.3708 29.7537 13.6256 29.7957C17.1166 30.3968 20.7056 29.6523 23.6694 27.7121C26.6332 25.7719 28.7513 22.7804 29.5968 19.3405C29.7173 18.856 29.8108 18.3653 29.8768 17.8705C29.9562 17.2661 29.9974 16.6572 30 16.0477V16.0001C30 15.7705 30 15.5409 29.9832 15.3169ZM26.8052 18.1365C26.5039 19.6541 25.8856 21.091 24.9908 22.3533C23.3745 24.6412 20.9477 26.228 18.2036 26.7913C17.7068 26.8933 17.2034 26.9598 16.6972 26.9901C16.4648 27.0069 16.2352 27.0125 16 27.0125C14.1232 27.0144 12.2772 26.5355 10.638 25.6213C8.99892 24.7072 7.62137 23.3883 6.6368 21.7905C6.4688 21.5105 6.312 21.2305 6.1692 20.9505C5.6394 19.9025 5.28022 18.7768 5.1052 17.6157C5.04843 17.239 5.0129 16.8595 4.9988 16.4789C4.9988 16.3193 4.9988 16.1569 4.9988 15.9945C4.9988 15.8321 4.9988 15.6305 4.9988 15.4737V15.4541C5.01789 15.046 5.05995 14.6394 5.1248 14.2361C5.37261 12.7255 5.932 11.283 6.76742 10.0002C7.60283 8.71751 8.696 7.62263 9.97741 6.78521C11.2588 5.94779 12.7005 5.38614 14.2107 5.13597C15.7209 4.8858 17.2666 4.95257 18.7496 5.33206C19.5438 5.53271 20.3123 5.82395 21.04 6.20006C21.32 6.34286 21.6 6.49966 21.88 6.67046C22.8135 7.25749 23.6544 7.98036 24.3748 8.81526C24.6299 9.10965 24.8683 9.41814 25.0888 9.73926C26.2573 11.4278 26.9268 13.4112 27.0208 15.4625V15.4821C27.0208 15.6389 27.0208 15.8125 27.0208 16.0029C27.0187 16.7194 26.9464 17.434 26.8052 18.1365V18.1365Z" fill="#FFB340"/>
<path d="M22.8348 17.4897L14.754 23.1933C14.4804 23.3852 14.1594 23.4985 13.8259 23.5208C13.4924 23.5431 13.1591 23.4735 12.8624 23.3197C12.5657 23.1658 12.3168 22.9336 12.1428 22.6482C11.9688 22.3628 11.8764 22.0351 11.8756 21.7009V10.2993C11.8764 9.96506 11.9688 9.63743 12.1428 9.35204C12.3168 9.06664 12.5657 8.8344 12.8624 8.68055C13.1591 8.5267 13.4924 8.45713 13.8259 8.47941C14.1594 8.50168 14.4804 8.61495 14.754 8.8069L19.3432 12.0437L20.0012 12.5085L22.8348 14.5105C23.0734 14.6788 23.2681 14.9019 23.4025 15.1612C23.5369 15.4204 23.607 15.7081 23.607 16.0001C23.607 16.2921 23.5369 16.5798 23.4025 16.839C23.2681 17.0983 23.0734 17.3214 22.8348 17.4897V17.4897Z" fill="#57D957"/>
<path d="M20.0012 12.5085L11.8812 17.6941V10.2993C11.882 9.96506 11.9744 9.63743 12.1484 9.35204C12.3224 9.06664 12.5713 8.8344 12.868 8.68055C13.1647 8.5267 13.4979 8.45713 13.8314 8.47941C14.1649 8.50168 14.486 8.61495 14.7596 8.8069L19.3432 12.0437L20.0012 12.5085Z" fill="#6EF56E"/>
<path d="M13.6228 26.7549L10.428 28.8465C7.83044 27.7171 5.63525 25.8284 4.1308 23.4285L6.6508 21.7905C7.42362 23.0407 8.43847 24.1239 9.63575 24.9764C10.833 25.8289 12.1886 26.4336 13.6228 26.7549V26.7549Z" fill="#FFDD73"/>
<path d="M30 16V16.0476L26.8052 18.1364C26.9438 17.4327 27.0132 16.7172 27.0124 16C27.0124 15.8096 27.0124 15.636 27.0124 15.4792V15.4596C26.9185 13.4083 26.2489 11.4249 25.0804 9.7364L27.564 8.104C29.0238 10.2374 29.8614 12.7347 29.9832 15.3168C30 15.5408 30 15.7704 30 16Z" fill="#FFDD73"/>
<path d="M23.84 4.39407L21.04 6.20007C20.3157 5.82572 19.551 5.53544 18.7608 5.33487C17.2768 4.95362 15.7298 4.88557 14.2181 5.13506C12.7064 5.38455 11.2632 5.94611 9.98045 6.78398C8.6977 7.62185 7.60349 8.71766 6.7675 10.0016C5.93152 11.2856 5.37207 12.7296 5.1248 14.2417C5.05995 14.645 5.01789 15.0516 4.9988 15.4597V15.4793C4.9988 15.6361 4.9988 15.8097 4.9988 16.0001C4.9988 16.1905 4.9988 16.3249 4.9988 16.4845L2.1988 18.2905C2.08259 17.6262 2.01614 16.9542 2 16.2801C2 16.1877 2 16.0925 2 16.0001C2 15.7705 2 15.5409 2.0168 15.3169C2.13248 12.8337 2.9079 10.4262 4.26323 8.34233C5.61856 6.25843 7.50482 4.57343 9.72779 3.4608C11.9508 2.34818 14.4301 1.84814 16.9106 2.01218C19.391 2.17621 21.7829 2.9984 23.84 4.39407V4.39407Z" fill="#FFDD73"/>
</g>
<defs>
<clipPath id="clip0_485_16026">
<rect width="28" height="28" fill="white" transform="translate(2 2)"/>
</clipPath>
</defs>
</svg>
